<mxfile host="app.diagrams.net" modified="2022-11-24T10:41:23.135Z" agent="5.0 (Windows NT 10.0; Win64; x64) AppleWebKit/537.36 (KHTML, like Gecko) Chrome/107.0.0.0 Safari/537.36 Edg/107.0.1418.56" version="20.6.0" etag="zPvbIQ7gAd3g2p9RuQ97" type="github">
  <diagram id="8pTBhF0LpMx93Jpw1MKz" name="Page-1">
    <mxGraphModel dx="2121" dy="1173" grid="1" gridSize="10" guides="1" tooltips="1" connect="1" arrows="1" fold="1" page="1" pageScale="1" pageWidth="850" pageHeight="1100" math="0" shadow="0">
      <root>
        <mxCell id="0" />
        <mxCell id="1" parent="0" />
        <mxCell id="Wy6P19Ys7phJF_CWAO8N-5" value="" style="rounded=0;whiteSpace=wrap;html=1;" vertex="1" parent="1">
          <mxGeometry x="50" y="18" width="740" height="840" as="geometry" />
        </mxCell>
        <mxCell id="Wy6P19Ys7phJF_CWAO8N-6" value="" style="rounded=0;whiteSpace=wrap;html=1;" vertex="1" parent="1">
          <mxGeometry x="340" y="28" width="140" height="50" as="geometry" />
        </mxCell>
        <mxCell id="Wy6P19Ys7phJF_CWAO8N-42" value="" style="rounded=0;whiteSpace=wrap;html=1;" vertex="1" parent="1">
          <mxGeometry x="80" y="90" width="690" height="598" as="geometry" />
        </mxCell>
        <mxCell id="Wy6P19Ys7phJF_CWAO8N-145" style="edgeStyle=orthogonalEdgeStyle;rounded=0;orthogonalLoop=1;jettySize=auto;html=1;exitX=1;exitY=0.5;exitDx=0;exitDy=0;entryX=0;entryY=0.5;entryDx=0;entryDy=0;fillColor=#e1d5e7;strokeColor=#9673a6;" edge="1" parent="1" source="Wy6P19Ys7phJF_CWAO8N-24" target="Wy6P19Ys7phJF_CWAO8N-88">
          <mxGeometry relative="1" as="geometry">
            <Array as="points">
              <mxPoint x="320" y="453" />
              <mxPoint x="320" y="538" />
            </Array>
          </mxGeometry>
        </mxCell>
        <mxCell id="Wy6P19Ys7phJF_CWAO8N-146" style="edgeStyle=orthogonalEdgeStyle;rounded=0;orthogonalLoop=1;jettySize=auto;html=1;exitX=1;exitY=0.5;exitDx=0;exitDy=0;entryX=0;entryY=0.5;entryDx=0;entryDy=0;fillColor=#e1d5e7;strokeColor=#9673a6;" edge="1" parent="1" source="Wy6P19Ys7phJF_CWAO8N-24" target="Wy6P19Ys7phJF_CWAO8N-89">
          <mxGeometry relative="1" as="geometry">
            <Array as="points">
              <mxPoint x="360" y="453" />
              <mxPoint x="360" y="538" />
            </Array>
          </mxGeometry>
        </mxCell>
        <mxCell id="Wy6P19Ys7phJF_CWAO8N-147" style="edgeStyle=orthogonalEdgeStyle;rounded=0;orthogonalLoop=1;jettySize=auto;html=1;exitX=1;exitY=0.5;exitDx=0;exitDy=0;entryX=0;entryY=0.5;entryDx=0;entryDy=0;fillColor=#e1d5e7;strokeColor=#9673a6;" edge="1" parent="1" source="Wy6P19Ys7phJF_CWAO8N-24" target="Wy6P19Ys7phJF_CWAO8N-90">
          <mxGeometry relative="1" as="geometry">
            <Array as="points">
              <mxPoint x="420" y="453" />
              <mxPoint x="420" y="538" />
            </Array>
          </mxGeometry>
        </mxCell>
        <mxCell id="Wy6P19Ys7phJF_CWAO8N-148" style="edgeStyle=orthogonalEdgeStyle;rounded=0;orthogonalLoop=1;jettySize=auto;html=1;exitX=1;exitY=0.5;exitDx=0;exitDy=0;entryX=0;entryY=0.5;entryDx=0;entryDy=0;fillColor=#e1d5e7;strokeColor=#9673a6;" edge="1" parent="1" source="Wy6P19Ys7phJF_CWAO8N-24" target="Wy6P19Ys7phJF_CWAO8N-91">
          <mxGeometry relative="1" as="geometry">
            <Array as="points">
              <mxPoint x="470" y="453" />
              <mxPoint x="470" y="538" />
            </Array>
          </mxGeometry>
        </mxCell>
        <mxCell id="Wy6P19Ys7phJF_CWAO8N-24" value="q" style="shape=process;whiteSpace=wrap;html=1;backgroundOutline=1;fillColor=#fff2cc;strokeColor=#d6b656;" vertex="1" parent="1">
          <mxGeometry x="170" y="438" width="60" height="30" as="geometry" />
        </mxCell>
        <mxCell id="Wy6P19Ys7phJF_CWAO8N-163" style="edgeStyle=orthogonalEdgeStyle;rounded=0;orthogonalLoop=1;jettySize=auto;html=1;exitX=1;exitY=0.5;exitDx=0;exitDy=0;entryX=0;entryY=0.5;entryDx=0;entryDy=0;fillColor=#f8cecc;strokeColor=#b85450;" edge="1" parent="1" source="Wy6P19Ys7phJF_CWAO8N-26" target="Wy6P19Ys7phJF_CWAO8N-104">
          <mxGeometry relative="1" as="geometry">
            <Array as="points">
              <mxPoint x="540" y="273" />
              <mxPoint x="540" y="538" />
            </Array>
          </mxGeometry>
        </mxCell>
        <mxCell id="Wy6P19Ys7phJF_CWAO8N-164" style="edgeStyle=orthogonalEdgeStyle;rounded=0;orthogonalLoop=1;jettySize=auto;html=1;exitX=1;exitY=0.5;exitDx=0;exitDy=0;entryX=0;entryY=0.5;entryDx=0;entryDy=0;fillColor=#f8cecc;strokeColor=#b85450;" edge="1" parent="1" source="Wy6P19Ys7phJF_CWAO8N-26" target="Wy6P19Ys7phJF_CWAO8N-105">
          <mxGeometry relative="1" as="geometry">
            <Array as="points">
              <mxPoint x="580" y="273" />
              <mxPoint x="580" y="538" />
            </Array>
          </mxGeometry>
        </mxCell>
        <mxCell id="Wy6P19Ys7phJF_CWAO8N-165" style="edgeStyle=orthogonalEdgeStyle;rounded=0;orthogonalLoop=1;jettySize=auto;html=1;exitX=1;exitY=0.5;exitDx=0;exitDy=0;entryX=0;entryY=0.5;entryDx=0;entryDy=0;fillColor=#f8cecc;strokeColor=#b85450;" edge="1" parent="1" source="Wy6P19Ys7phJF_CWAO8N-26" target="Wy6P19Ys7phJF_CWAO8N-106">
          <mxGeometry relative="1" as="geometry">
            <Array as="points">
              <mxPoint x="640" y="273" />
              <mxPoint x="640" y="538" />
            </Array>
          </mxGeometry>
        </mxCell>
        <mxCell id="Wy6P19Ys7phJF_CWAO8N-166" style="edgeStyle=orthogonalEdgeStyle;rounded=0;orthogonalLoop=1;jettySize=auto;html=1;exitX=1;exitY=0.5;exitDx=0;exitDy=0;entryX=0;entryY=0.5;entryDx=0;entryDy=0;fillColor=#f8cecc;strokeColor=#b85450;" edge="1" parent="1" source="Wy6P19Ys7phJF_CWAO8N-26" target="Wy6P19Ys7phJF_CWAO8N-107">
          <mxGeometry relative="1" as="geometry">
            <Array as="points">
              <mxPoint x="690" y="273" />
              <mxPoint x="690" y="538" />
            </Array>
          </mxGeometry>
        </mxCell>
        <mxCell id="Wy6P19Ys7phJF_CWAO8N-26" value="k" style="shape=process;whiteSpace=wrap;html=1;backgroundOutline=1;fillColor=#e1d5e7;strokeColor=#9673a6;" vertex="1" parent="1">
          <mxGeometry x="390" y="258" width="60" height="30" as="geometry" />
        </mxCell>
        <mxCell id="Wy6P19Ys7phJF_CWAO8N-173" style="edgeStyle=orthogonalEdgeStyle;rounded=0;orthogonalLoop=1;jettySize=auto;html=1;exitX=0;exitY=0.5;exitDx=0;exitDy=0;entryX=0;entryY=0.5;entryDx=0;entryDy=0;" edge="1" parent="1" source="Wy6P19Ys7phJF_CWAO8N-198" target="Wy6P19Ys7phJF_CWAO8N-172">
          <mxGeometry relative="1" as="geometry">
            <mxPoint x="100" y="623" as="sourcePoint" />
            <Array as="points">
              <mxPoint x="90" y="505" />
              <mxPoint x="90" y="150" />
            </Array>
          </mxGeometry>
        </mxCell>
        <mxCell id="Wy6P19Ys7phJF_CWAO8N-39" value="k" style="rounded=1;whiteSpace=wrap;html=1;" vertex="1" parent="1">
          <mxGeometry x="320" y="560" width="200" height="110" as="geometry" />
        </mxCell>
        <mxCell id="Wy6P19Ys7phJF_CWAO8N-40" value="v" style="rounded=1;whiteSpace=wrap;html=1;" vertex="1" parent="1">
          <mxGeometry x="540" y="560" width="200" height="110" as="geometry" />
        </mxCell>
        <mxCell id="Wy6P19Ys7phJF_CWAO8N-7" value="Transformation" style="rounded=0;whiteSpace=wrap;html=1;fillColor=#f8cecc;strokeColor=#b85450;" vertex="1" parent="1">
          <mxGeometry x="540" y="218" width="200" height="32" as="geometry" />
        </mxCell>
        <mxCell id="Wy6P19Ys7phJF_CWAO8N-149" style="edgeStyle=orthogonalEdgeStyle;rounded=0;orthogonalLoop=1;jettySize=auto;html=1;exitX=0.5;exitY=0;exitDx=0;exitDy=0;entryX=0.5;entryY=1;entryDx=0;entryDy=0;" edge="1" parent="1" source="Wy6P19Ys7phJF_CWAO8N-198" target="Wy6P19Ys7phJF_CWAO8N-24">
          <mxGeometry relative="1" as="geometry">
            <mxPoint x="200" y="488" as="sourcePoint" />
          </mxGeometry>
        </mxCell>
        <mxCell id="Wy6P19Ys7phJF_CWAO8N-76" style="edgeStyle=orthogonalEdgeStyle;rounded=0;orthogonalLoop=1;jettySize=auto;html=1;exitX=1;exitY=0.5;exitDx=0;exitDy=0;entryX=0.5;entryY=1;entryDx=0;entryDy=0;" edge="1" parent="1" source="Wy6P19Ys7phJF_CWAO8N-78" target="Wy6P19Ys7phJF_CWAO8N-88">
          <mxGeometry relative="1" as="geometry" />
        </mxCell>
        <mxCell id="Wy6P19Ys7phJF_CWAO8N-78" value="k1" style="shape=process;whiteSpace=wrap;html=1;backgroundOutline=1;rotation=-90;fillColor=#e1d5e7;strokeColor=#9673a6;" vertex="1" parent="1">
          <mxGeometry x="312.5" y="593" width="60" height="30" as="geometry" />
        </mxCell>
        <mxCell id="Wy6P19Ys7phJF_CWAO8N-79" style="edgeStyle=orthogonalEdgeStyle;rounded=0;orthogonalLoop=1;jettySize=auto;html=1;exitX=1;exitY=0.5;exitDx=0;exitDy=0;entryX=0.5;entryY=1;entryDx=0;entryDy=0;" edge="1" parent="1" source="Wy6P19Ys7phJF_CWAO8N-81" target="Wy6P19Ys7phJF_CWAO8N-89">
          <mxGeometry relative="1" as="geometry" />
        </mxCell>
        <mxCell id="Wy6P19Ys7phJF_CWAO8N-81" value="k2" style="shape=process;whiteSpace=wrap;html=1;backgroundOutline=1;rotation=-90;fillColor=#e1d5e7;strokeColor=#9673a6;" vertex="1" parent="1">
          <mxGeometry x="357.5" y="593" width="60" height="30" as="geometry" />
        </mxCell>
        <mxCell id="Wy6P19Ys7phJF_CWAO8N-82" style="edgeStyle=orthogonalEdgeStyle;rounded=0;orthogonalLoop=1;jettySize=auto;html=1;exitX=1;exitY=0.5;exitDx=0;exitDy=0;entryX=0.5;entryY=1;entryDx=0;entryDy=0;" edge="1" parent="1" source="Wy6P19Ys7phJF_CWAO8N-84" target="Wy6P19Ys7phJF_CWAO8N-90">
          <mxGeometry relative="1" as="geometry" />
        </mxCell>
        <mxCell id="Wy6P19Ys7phJF_CWAO8N-84" value="kn-1" style="shape=process;whiteSpace=wrap;html=1;backgroundOutline=1;rotation=-90;fillColor=#e1d5e7;strokeColor=#9673a6;" vertex="1" parent="1">
          <mxGeometry x="417.5" y="593" width="60" height="30" as="geometry" />
        </mxCell>
        <mxCell id="Wy6P19Ys7phJF_CWAO8N-85" style="edgeStyle=orthogonalEdgeStyle;rounded=0;orthogonalLoop=1;jettySize=auto;html=1;exitX=1;exitY=0.5;exitDx=0;exitDy=0;entryX=0.5;entryY=1;entryDx=0;entryDy=0;" edge="1" parent="1" source="Wy6P19Ys7phJF_CWAO8N-87" target="Wy6P19Ys7phJF_CWAO8N-91">
          <mxGeometry relative="1" as="geometry" />
        </mxCell>
        <mxCell id="Wy6P19Ys7phJF_CWAO8N-87" value="kn" style="shape=process;whiteSpace=wrap;html=1;backgroundOutline=1;rotation=-90;fillColor=#e1d5e7;strokeColor=#9673a6;" vertex="1" parent="1">
          <mxGeometry x="467.5" y="593" width="60" height="30" as="geometry" />
        </mxCell>
        <mxCell id="Wy6P19Ys7phJF_CWAO8N-141" style="edgeStyle=orthogonalEdgeStyle;rounded=0;orthogonalLoop=1;jettySize=auto;html=1;exitX=0.5;exitY=0;exitDx=0;exitDy=0;entryX=0;entryY=0.5;entryDx=0;entryDy=0;" edge="1" parent="1" source="Wy6P19Ys7phJF_CWAO8N-88" target="Wy6P19Ys7phJF_CWAO8N-127">
          <mxGeometry relative="1" as="geometry" />
        </mxCell>
        <mxCell id="Wy6P19Ys7phJF_CWAO8N-88" value="" style="shape=sumEllipse;perimeter=ellipsePerimeter;whiteSpace=wrap;html=1;backgroundOutline=1;" vertex="1" parent="1">
          <mxGeometry x="332.5" y="528" width="20" height="20" as="geometry" />
        </mxCell>
        <mxCell id="Wy6P19Ys7phJF_CWAO8N-142" style="edgeStyle=orthogonalEdgeStyle;rounded=0;orthogonalLoop=1;jettySize=auto;html=1;exitX=0.5;exitY=0;exitDx=0;exitDy=0;entryX=0;entryY=0.5;entryDx=0;entryDy=0;" edge="1" parent="1" source="Wy6P19Ys7phJF_CWAO8N-89" target="Wy6P19Ys7phJF_CWAO8N-130">
          <mxGeometry relative="1" as="geometry" />
        </mxCell>
        <mxCell id="Wy6P19Ys7phJF_CWAO8N-89" value="" style="shape=sumEllipse;perimeter=ellipsePerimeter;whiteSpace=wrap;html=1;backgroundOutline=1;" vertex="1" parent="1">
          <mxGeometry x="377.5" y="528" width="20" height="20" as="geometry" />
        </mxCell>
        <mxCell id="Wy6P19Ys7phJF_CWAO8N-143" style="edgeStyle=orthogonalEdgeStyle;rounded=0;orthogonalLoop=1;jettySize=auto;html=1;exitX=0.5;exitY=0;exitDx=0;exitDy=0;entryX=0;entryY=0.5;entryDx=0;entryDy=0;" edge="1" parent="1" source="Wy6P19Ys7phJF_CWAO8N-90" target="Wy6P19Ys7phJF_CWAO8N-133">
          <mxGeometry relative="1" as="geometry" />
        </mxCell>
        <mxCell id="Wy6P19Ys7phJF_CWAO8N-90" value="" style="shape=sumEllipse;perimeter=ellipsePerimeter;whiteSpace=wrap;html=1;backgroundOutline=1;" vertex="1" parent="1">
          <mxGeometry x="437.5" y="528" width="20" height="20" as="geometry" />
        </mxCell>
        <mxCell id="Wy6P19Ys7phJF_CWAO8N-144" style="edgeStyle=orthogonalEdgeStyle;rounded=0;orthogonalLoop=1;jettySize=auto;html=1;exitX=0.5;exitY=0;exitDx=0;exitDy=0;entryX=0;entryY=0.5;entryDx=0;entryDy=0;" edge="1" parent="1" source="Wy6P19Ys7phJF_CWAO8N-91" target="Wy6P19Ys7phJF_CWAO8N-136">
          <mxGeometry relative="1" as="geometry" />
        </mxCell>
        <mxCell id="Wy6P19Ys7phJF_CWAO8N-91" value="" style="shape=sumEllipse;perimeter=ellipsePerimeter;whiteSpace=wrap;html=1;backgroundOutline=1;" vertex="1" parent="1">
          <mxGeometry x="487.5" y="528" width="20" height="20" as="geometry" />
        </mxCell>
        <mxCell id="Wy6P19Ys7phJF_CWAO8N-92" style="edgeStyle=orthogonalEdgeStyle;rounded=0;orthogonalLoop=1;jettySize=auto;html=1;exitX=1;exitY=0.5;exitDx=0;exitDy=0;entryX=0.5;entryY=1;entryDx=0;entryDy=0;" edge="1" parent="1" source="Wy6P19Ys7phJF_CWAO8N-94" target="Wy6P19Ys7phJF_CWAO8N-104">
          <mxGeometry relative="1" as="geometry" />
        </mxCell>
        <mxCell id="Wy6P19Ys7phJF_CWAO8N-94" value="v1" style="shape=process;whiteSpace=wrap;html=1;backgroundOutline=1;rotation=-90;fillColor=#f8cecc;strokeColor=#b85450;" vertex="1" parent="1">
          <mxGeometry x="532.5" y="593" width="60" height="30" as="geometry" />
        </mxCell>
        <mxCell id="Wy6P19Ys7phJF_CWAO8N-95" style="edgeStyle=orthogonalEdgeStyle;rounded=0;orthogonalLoop=1;jettySize=auto;html=1;exitX=1;exitY=0.5;exitDx=0;exitDy=0;entryX=0.5;entryY=1;entryDx=0;entryDy=0;" edge="1" parent="1" source="Wy6P19Ys7phJF_CWAO8N-97" target="Wy6P19Ys7phJF_CWAO8N-105">
          <mxGeometry relative="1" as="geometry" />
        </mxCell>
        <mxCell id="Wy6P19Ys7phJF_CWAO8N-97" value="v2" style="shape=process;whiteSpace=wrap;html=1;backgroundOutline=1;rotation=-90;fillColor=#f8cecc;strokeColor=#b85450;" vertex="1" parent="1">
          <mxGeometry x="577.5" y="593" width="60" height="30" as="geometry" />
        </mxCell>
        <mxCell id="Wy6P19Ys7phJF_CWAO8N-98" style="edgeStyle=orthogonalEdgeStyle;rounded=0;orthogonalLoop=1;jettySize=auto;html=1;exitX=1;exitY=0.5;exitDx=0;exitDy=0;entryX=0.5;entryY=1;entryDx=0;entryDy=0;" edge="1" parent="1" source="Wy6P19Ys7phJF_CWAO8N-100" target="Wy6P19Ys7phJF_CWAO8N-106">
          <mxGeometry relative="1" as="geometry" />
        </mxCell>
        <mxCell id="Wy6P19Ys7phJF_CWAO8N-100" value="vn-1" style="shape=process;whiteSpace=wrap;html=1;backgroundOutline=1;rotation=-90;fillColor=#f8cecc;strokeColor=#b85450;" vertex="1" parent="1">
          <mxGeometry x="637.5" y="593" width="60" height="30" as="geometry" />
        </mxCell>
        <mxCell id="Wy6P19Ys7phJF_CWAO8N-101" style="edgeStyle=orthogonalEdgeStyle;rounded=0;orthogonalLoop=1;jettySize=auto;html=1;exitX=1;exitY=0.5;exitDx=0;exitDy=0;entryX=0.5;entryY=1;entryDx=0;entryDy=0;" edge="1" parent="1" source="Wy6P19Ys7phJF_CWAO8N-103" target="Wy6P19Ys7phJF_CWAO8N-107">
          <mxGeometry relative="1" as="geometry" />
        </mxCell>
        <mxCell id="Wy6P19Ys7phJF_CWAO8N-103" value="vn" style="shape=process;whiteSpace=wrap;html=1;backgroundOutline=1;rotation=-90;fillColor=#f8cecc;strokeColor=#b85450;" vertex="1" parent="1">
          <mxGeometry x="687.5" y="593" width="60" height="30" as="geometry" />
        </mxCell>
        <mxCell id="Wy6P19Ys7phJF_CWAO8N-159" style="edgeStyle=orthogonalEdgeStyle;rounded=0;orthogonalLoop=1;jettySize=auto;html=1;exitX=0.5;exitY=0;exitDx=0;exitDy=0;entryX=0.109;entryY=1.026;entryDx=0;entryDy=0;entryPerimeter=0;" edge="1" parent="1" source="Wy6P19Ys7phJF_CWAO8N-104" target="Wy6P19Ys7phJF_CWAO8N-7">
          <mxGeometry relative="1" as="geometry" />
        </mxCell>
        <mxCell id="Wy6P19Ys7phJF_CWAO8N-217" value="u1" style="edgeLabel;html=1;align=center;verticalAlign=middle;resizable=0;points=[];" vertex="1" connectable="0" parent="Wy6P19Ys7phJF_CWAO8N-159">
          <mxGeometry x="0.2218" y="1" relative="1" as="geometry">
            <mxPoint as="offset" />
          </mxGeometry>
        </mxCell>
        <mxCell id="Wy6P19Ys7phJF_CWAO8N-104" value="" style="shape=sumEllipse;perimeter=ellipsePerimeter;whiteSpace=wrap;html=1;backgroundOutline=1;" vertex="1" parent="1">
          <mxGeometry x="552.5" y="528" width="20" height="20" as="geometry" />
        </mxCell>
        <mxCell id="Wy6P19Ys7phJF_CWAO8N-160" style="edgeStyle=orthogonalEdgeStyle;rounded=0;orthogonalLoop=1;jettySize=auto;html=1;exitX=0.5;exitY=0;exitDx=0;exitDy=0;entryX=0.337;entryY=1.011;entryDx=0;entryDy=0;entryPerimeter=0;" edge="1" parent="1" source="Wy6P19Ys7phJF_CWAO8N-105" target="Wy6P19Ys7phJF_CWAO8N-7">
          <mxGeometry relative="1" as="geometry">
            <Array as="points">
              <mxPoint x="607" y="258" />
              <mxPoint x="607" y="258" />
            </Array>
          </mxGeometry>
        </mxCell>
        <mxCell id="Wy6P19Ys7phJF_CWAO8N-218" value="u2" style="edgeLabel;html=1;align=center;verticalAlign=middle;resizable=0;points=[];" vertex="1" connectable="0" parent="Wy6P19Ys7phJF_CWAO8N-160">
          <mxGeometry x="0.233" relative="1" as="geometry">
            <mxPoint as="offset" />
          </mxGeometry>
        </mxCell>
        <mxCell id="Wy6P19Ys7phJF_CWAO8N-105" value="" style="shape=sumEllipse;perimeter=ellipsePerimeter;whiteSpace=wrap;html=1;backgroundOutline=1;" vertex="1" parent="1">
          <mxGeometry x="597.5" y="528" width="20" height="20" as="geometry" />
        </mxCell>
        <mxCell id="Wy6P19Ys7phJF_CWAO8N-161" style="edgeStyle=orthogonalEdgeStyle;rounded=0;orthogonalLoop=1;jettySize=auto;html=1;exitX=0.5;exitY=0;exitDx=0;exitDy=0;entryX=0.637;entryY=1.007;entryDx=0;entryDy=0;entryPerimeter=0;" edge="1" parent="1" source="Wy6P19Ys7phJF_CWAO8N-106" target="Wy6P19Ys7phJF_CWAO8N-7">
          <mxGeometry relative="1" as="geometry">
            <Array as="points">
              <mxPoint x="668" y="258" />
              <mxPoint x="667" y="258" />
            </Array>
          </mxGeometry>
        </mxCell>
        <mxCell id="Wy6P19Ys7phJF_CWAO8N-221" value="un-1" style="edgeLabel;html=1;align=center;verticalAlign=middle;resizable=0;points=[];" vertex="1" connectable="0" parent="Wy6P19Ys7phJF_CWAO8N-161">
          <mxGeometry x="0.2249" y="2" relative="1" as="geometry">
            <mxPoint as="offset" />
          </mxGeometry>
        </mxCell>
        <mxCell id="Wy6P19Ys7phJF_CWAO8N-106" value="" style="shape=sumEllipse;perimeter=ellipsePerimeter;whiteSpace=wrap;html=1;backgroundOutline=1;" vertex="1" parent="1">
          <mxGeometry x="657.5" y="528" width="20" height="20" as="geometry" />
        </mxCell>
        <mxCell id="Wy6P19Ys7phJF_CWAO8N-162" style="edgeStyle=orthogonalEdgeStyle;rounded=0;orthogonalLoop=1;jettySize=auto;html=1;exitX=0.5;exitY=0;exitDx=0;exitDy=0;entryX=0.887;entryY=1.013;entryDx=0;entryDy=0;entryPerimeter=0;" edge="1" parent="1" source="Wy6P19Ys7phJF_CWAO8N-107" target="Wy6P19Ys7phJF_CWAO8N-7">
          <mxGeometry relative="1" as="geometry">
            <Array as="points">
              <mxPoint x="718" y="268" />
            </Array>
          </mxGeometry>
        </mxCell>
        <mxCell id="Wy6P19Ys7phJF_CWAO8N-222" value="un" style="edgeLabel;html=1;align=center;verticalAlign=middle;resizable=0;points=[];" vertex="1" connectable="0" parent="Wy6P19Ys7phJF_CWAO8N-162">
          <mxGeometry x="0.2182" y="-1" relative="1" as="geometry">
            <mxPoint as="offset" />
          </mxGeometry>
        </mxCell>
        <mxCell id="Wy6P19Ys7phJF_CWAO8N-107" value="" style="shape=sumEllipse;perimeter=ellipsePerimeter;whiteSpace=wrap;html=1;backgroundOutline=1;" vertex="1" parent="1">
          <mxGeometry x="707.5" y="528" width="20" height="20" as="geometry" />
        </mxCell>
        <mxCell id="Wy6P19Ys7phJF_CWAO8N-125" style="edgeStyle=orthogonalEdgeStyle;rounded=0;orthogonalLoop=1;jettySize=auto;html=1;exitX=1;exitY=0.5;exitDx=0;exitDy=0;entryX=0.5;entryY=1;entryDx=0;entryDy=0;" edge="1" parent="1" source="Wy6P19Ys7phJF_CWAO8N-127" target="Wy6P19Ys7phJF_CWAO8N-137">
          <mxGeometry relative="1" as="geometry" />
        </mxCell>
        <mxCell id="Wy6P19Ys7phJF_CWAO8N-126" style="edgeStyle=orthogonalEdgeStyle;rounded=0;orthogonalLoop=1;jettySize=auto;html=1;exitX=0.5;exitY=1;exitDx=0;exitDy=0;entryX=1;entryY=0.5;entryDx=0;entryDy=0;fillColor=#e1d5e7;strokeColor=#9673a6;" edge="1" parent="1" source="Wy6P19Ys7phJF_CWAO8N-127" target="Wy6P19Ys7phJF_CWAO8N-137">
          <mxGeometry relative="1" as="geometry">
            <Array as="points">
              <mxPoint x="367.50000000000006" y="409" />
              <mxPoint x="367.50000000000006" y="339" />
            </Array>
          </mxGeometry>
        </mxCell>
        <mxCell id="Wy6P19Ys7phJF_CWAO8N-127" value="p1" style="shape=process;whiteSpace=wrap;html=1;backgroundOutline=1;rotation=-90;fillColor=#e1d5e7;strokeColor=#9673a6;" vertex="1" parent="1">
          <mxGeometry x="312.50000000000006" y="394" width="60" height="30" as="geometry" />
        </mxCell>
        <mxCell id="Wy6P19Ys7phJF_CWAO8N-128" style="edgeStyle=orthogonalEdgeStyle;rounded=0;orthogonalLoop=1;jettySize=auto;html=1;exitX=1;exitY=0.5;exitDx=0;exitDy=0;entryX=0.5;entryY=1;entryDx=0;entryDy=0;" edge="1" parent="1" source="Wy6P19Ys7phJF_CWAO8N-130" target="Wy6P19Ys7phJF_CWAO8N-138">
          <mxGeometry relative="1" as="geometry" />
        </mxCell>
        <mxCell id="Wy6P19Ys7phJF_CWAO8N-129" style="edgeStyle=orthogonalEdgeStyle;rounded=0;orthogonalLoop=1;jettySize=auto;html=1;exitX=0.5;exitY=1;exitDx=0;exitDy=0;entryX=1;entryY=0.5;entryDx=0;entryDy=0;fillColor=#e1d5e7;strokeColor=#9673a6;" edge="1" parent="1" source="Wy6P19Ys7phJF_CWAO8N-130" target="Wy6P19Ys7phJF_CWAO8N-138">
          <mxGeometry relative="1" as="geometry">
            <Array as="points">
              <mxPoint x="417.50000000000006" y="409" />
              <mxPoint x="417.50000000000006" y="339" />
            </Array>
          </mxGeometry>
        </mxCell>
        <mxCell id="Wy6P19Ys7phJF_CWAO8N-130" value="p2" style="shape=process;whiteSpace=wrap;html=1;backgroundOutline=1;rotation=-90;fillColor=#e1d5e7;strokeColor=#9673a6;" vertex="1" parent="1">
          <mxGeometry x="357.50000000000006" y="394" width="60" height="30" as="geometry" />
        </mxCell>
        <mxCell id="Wy6P19Ys7phJF_CWAO8N-131" style="edgeStyle=orthogonalEdgeStyle;rounded=0;orthogonalLoop=1;jettySize=auto;html=1;exitX=1;exitY=0.5;exitDx=0;exitDy=0;entryX=0.5;entryY=1;entryDx=0;entryDy=0;" edge="1" parent="1" source="Wy6P19Ys7phJF_CWAO8N-133" target="Wy6P19Ys7phJF_CWAO8N-139">
          <mxGeometry relative="1" as="geometry" />
        </mxCell>
        <mxCell id="Wy6P19Ys7phJF_CWAO8N-132" style="edgeStyle=orthogonalEdgeStyle;rounded=0;orthogonalLoop=1;jettySize=auto;html=1;exitX=0.5;exitY=1;exitDx=0;exitDy=0;entryX=1;entryY=0.5;entryDx=0;entryDy=0;fillColor=#e1d5e7;strokeColor=#9673a6;" edge="1" parent="1" source="Wy6P19Ys7phJF_CWAO8N-133" target="Wy6P19Ys7phJF_CWAO8N-139">
          <mxGeometry relative="1" as="geometry">
            <Array as="points">
              <mxPoint x="477.50000000000006" y="409" />
              <mxPoint x="477.50000000000006" y="339" />
            </Array>
          </mxGeometry>
        </mxCell>
        <mxCell id="Wy6P19Ys7phJF_CWAO8N-133" value="pn-1" style="shape=process;whiteSpace=wrap;html=1;backgroundOutline=1;rotation=-90;fillColor=#e1d5e7;strokeColor=#9673a6;" vertex="1" parent="1">
          <mxGeometry x="417.50000000000006" y="394" width="60" height="30" as="geometry" />
        </mxCell>
        <mxCell id="Wy6P19Ys7phJF_CWAO8N-134" style="edgeStyle=orthogonalEdgeStyle;rounded=0;orthogonalLoop=1;jettySize=auto;html=1;exitX=1;exitY=0.5;exitDx=0;exitDy=0;entryX=0.5;entryY=1;entryDx=0;entryDy=0;" edge="1" parent="1" source="Wy6P19Ys7phJF_CWAO8N-136" target="Wy6P19Ys7phJF_CWAO8N-140">
          <mxGeometry relative="1" as="geometry" />
        </mxCell>
        <mxCell id="Wy6P19Ys7phJF_CWAO8N-135" style="edgeStyle=orthogonalEdgeStyle;rounded=0;orthogonalLoop=1;jettySize=auto;html=1;exitX=0.5;exitY=1;exitDx=0;exitDy=0;entryX=1;entryY=0.5;entryDx=0;entryDy=0;fillColor=#e1d5e7;strokeColor=#9673a6;" edge="1" parent="1" source="Wy6P19Ys7phJF_CWAO8N-136" target="Wy6P19Ys7phJF_CWAO8N-140">
          <mxGeometry relative="1" as="geometry">
            <Array as="points">
              <mxPoint x="527.5" y="409" />
              <mxPoint x="527.5" y="339" />
            </Array>
          </mxGeometry>
        </mxCell>
        <mxCell id="Wy6P19Ys7phJF_CWAO8N-136" value="pn" style="shape=process;whiteSpace=wrap;html=1;backgroundOutline=1;rotation=-90;fillColor=#e1d5e7;strokeColor=#9673a6;" vertex="1" parent="1">
          <mxGeometry x="467.50000000000006" y="394" width="60" height="30" as="geometry" />
        </mxCell>
        <mxCell id="Wy6P19Ys7phJF_CWAO8N-151" style="edgeStyle=orthogonalEdgeStyle;rounded=0;orthogonalLoop=1;jettySize=auto;html=1;exitX=0.5;exitY=0;exitDx=0;exitDy=0;entryX=0;entryY=0.5;entryDx=0;entryDy=0;" edge="1" parent="1" source="Wy6P19Ys7phJF_CWAO8N-137" target="Wy6P19Ys7phJF_CWAO8N-150">
          <mxGeometry relative="1" as="geometry">
            <Array as="points">
              <mxPoint x="342" y="319" />
            </Array>
          </mxGeometry>
        </mxCell>
        <mxCell id="Wy6P19Ys7phJF_CWAO8N-137" value="" style="shape=sumEllipse;perimeter=ellipsePerimeter;whiteSpace=wrap;html=1;backgroundOutline=1;" vertex="1" parent="1">
          <mxGeometry x="332.50000000000006" y="329" width="20" height="20" as="geometry" />
        </mxCell>
        <mxCell id="Wy6P19Ys7phJF_CWAO8N-152" style="edgeStyle=orthogonalEdgeStyle;rounded=0;orthogonalLoop=1;jettySize=auto;html=1;exitX=0.5;exitY=0;exitDx=0;exitDy=0;entryX=0;entryY=0.5;entryDx=0;entryDy=0;" edge="1" parent="1" source="Wy6P19Ys7phJF_CWAO8N-138" target="Wy6P19Ys7phJF_CWAO8N-150">
          <mxGeometry relative="1" as="geometry">
            <Array as="points">
              <mxPoint x="388" y="319" />
            </Array>
          </mxGeometry>
        </mxCell>
        <mxCell id="Wy6P19Ys7phJF_CWAO8N-138" value="" style="shape=sumEllipse;perimeter=ellipsePerimeter;whiteSpace=wrap;html=1;backgroundOutline=1;" vertex="1" parent="1">
          <mxGeometry x="377.50000000000006" y="329" width="20" height="20" as="geometry" />
        </mxCell>
        <mxCell id="Wy6P19Ys7phJF_CWAO8N-153" style="edgeStyle=orthogonalEdgeStyle;rounded=0;orthogonalLoop=1;jettySize=auto;html=1;exitX=0.5;exitY=0;exitDx=0;exitDy=0;entryX=1;entryY=0.5;entryDx=0;entryDy=0;" edge="1" parent="1" source="Wy6P19Ys7phJF_CWAO8N-139" target="Wy6P19Ys7phJF_CWAO8N-150">
          <mxGeometry relative="1" as="geometry">
            <Array as="points">
              <mxPoint x="448" y="319" />
            </Array>
          </mxGeometry>
        </mxCell>
        <mxCell id="Wy6P19Ys7phJF_CWAO8N-139" value="" style="shape=sumEllipse;perimeter=ellipsePerimeter;whiteSpace=wrap;html=1;backgroundOutline=1;" vertex="1" parent="1">
          <mxGeometry x="437.50000000000006" y="329" width="20" height="20" as="geometry" />
        </mxCell>
        <mxCell id="Wy6P19Ys7phJF_CWAO8N-156" style="edgeStyle=orthogonalEdgeStyle;rounded=0;orthogonalLoop=1;jettySize=auto;html=1;exitX=0.5;exitY=0;exitDx=0;exitDy=0;entryX=1;entryY=0.5;entryDx=0;entryDy=0;" edge="1" parent="1" source="Wy6P19Ys7phJF_CWAO8N-140" target="Wy6P19Ys7phJF_CWAO8N-150">
          <mxGeometry relative="1" as="geometry">
            <Array as="points">
              <mxPoint x="498" y="319" />
            </Array>
          </mxGeometry>
        </mxCell>
        <mxCell id="Wy6P19Ys7phJF_CWAO8N-140" value="" style="shape=sumEllipse;perimeter=ellipsePerimeter;whiteSpace=wrap;html=1;backgroundOutline=1;" vertex="1" parent="1">
          <mxGeometry x="487.50000000000006" y="329" width="20" height="20" as="geometry" />
        </mxCell>
        <mxCell id="Wy6P19Ys7phJF_CWAO8N-157" style="edgeStyle=orthogonalEdgeStyle;rounded=0;orthogonalLoop=1;jettySize=auto;html=1;exitX=0.5;exitY=0;exitDx=0;exitDy=0;entryX=0.5;entryY=1;entryDx=0;entryDy=0;" edge="1" parent="1" source="Wy6P19Ys7phJF_CWAO8N-150" target="Wy6P19Ys7phJF_CWAO8N-26">
          <mxGeometry relative="1" as="geometry" />
        </mxCell>
        <mxCell id="Wy6P19Ys7phJF_CWAO8N-150" value="" style="shape=orEllipse;perimeter=ellipsePerimeter;whiteSpace=wrap;html=1;backgroundOutline=1;" vertex="1" parent="1">
          <mxGeometry x="410" y="309" width="20" height="20" as="geometry" />
        </mxCell>
        <mxCell id="Wy6P19Ys7phJF_CWAO8N-174" style="edgeStyle=orthogonalEdgeStyle;rounded=0;orthogonalLoop=1;jettySize=auto;html=1;exitX=0;exitY=0.5;exitDx=0;exitDy=0;entryX=1;entryY=0.5;entryDx=0;entryDy=0;" edge="1" parent="1" source="Wy6P19Ys7phJF_CWAO8N-167" target="Wy6P19Ys7phJF_CWAO8N-172">
          <mxGeometry relative="1" as="geometry" />
        </mxCell>
        <mxCell id="Wy6P19Ys7phJF_CWAO8N-167" value="" style="rounded=1;whiteSpace=wrap;html=1;" vertex="1" parent="1">
          <mxGeometry x="540" y="105" width="200" height="90" as="geometry" />
        </mxCell>
        <mxCell id="Wy6P19Ys7phJF_CWAO8N-32" value="r1" style="shape=process;whiteSpace=wrap;html=1;backgroundOutline=1;rotation=-90;fillColor=#f8cecc;strokeColor=#b85450;" vertex="1" parent="1">
          <mxGeometry x="532.5" y="140" width="60" height="30" as="geometry" />
        </mxCell>
        <mxCell id="Wy6P19Ys7phJF_CWAO8N-33" value="r2" style="shape=process;whiteSpace=wrap;html=1;backgroundOutline=1;rotation=-90;fillColor=#f8cecc;strokeColor=#b85450;" vertex="1" parent="1">
          <mxGeometry x="577.5" y="140" width="60" height="30" as="geometry" />
        </mxCell>
        <mxCell id="Wy6P19Ys7phJF_CWAO8N-34" value="rn-1" style="shape=process;whiteSpace=wrap;html=1;backgroundOutline=1;rotation=-90;fillColor=#f8cecc;strokeColor=#b85450;" vertex="1" parent="1">
          <mxGeometry x="637.5" y="140" width="60" height="30" as="geometry" />
        </mxCell>
        <mxCell id="Wy6P19Ys7phJF_CWAO8N-35" value="rn" style="shape=process;whiteSpace=wrap;html=1;backgroundOutline=1;rotation=-90;fillColor=#f8cecc;strokeColor=#b85450;" vertex="1" parent="1">
          <mxGeometry x="687.5" y="140" width="60" height="30" as="geometry" />
        </mxCell>
        <mxCell id="Wy6P19Ys7phJF_CWAO8N-168" style="edgeStyle=orthogonalEdgeStyle;rounded=0;orthogonalLoop=1;jettySize=auto;html=1;exitX=0.5;exitY=0;exitDx=0;exitDy=0;entryX=0;entryY=0.5;entryDx=0;entryDy=0;" edge="1" parent="1" source="Wy6P19Ys7phJF_CWAO8N-7" target="Wy6P19Ys7phJF_CWAO8N-32">
          <mxGeometry relative="1" as="geometry">
            <Array as="points">
              <mxPoint x="640" y="208" />
              <mxPoint x="563" y="208" />
            </Array>
          </mxGeometry>
        </mxCell>
        <mxCell id="Wy6P19Ys7phJF_CWAO8N-169" style="edgeStyle=orthogonalEdgeStyle;rounded=0;orthogonalLoop=1;jettySize=auto;html=1;exitX=0.5;exitY=0;exitDx=0;exitDy=0;entryX=0;entryY=0.5;entryDx=0;entryDy=0;" edge="1" parent="1" source="Wy6P19Ys7phJF_CWAO8N-7" target="Wy6P19Ys7phJF_CWAO8N-33">
          <mxGeometry relative="1" as="geometry">
            <Array as="points">
              <mxPoint x="640" y="208" />
              <mxPoint x="608" y="208" />
            </Array>
          </mxGeometry>
        </mxCell>
        <mxCell id="Wy6P19Ys7phJF_CWAO8N-170" style="edgeStyle=orthogonalEdgeStyle;rounded=0;orthogonalLoop=1;jettySize=auto;html=1;exitX=0.5;exitY=0;exitDx=0;exitDy=0;entryX=0;entryY=0.5;entryDx=0;entryDy=0;" edge="1" parent="1" source="Wy6P19Ys7phJF_CWAO8N-7" target="Wy6P19Ys7phJF_CWAO8N-34">
          <mxGeometry relative="1" as="geometry">
            <Array as="points">
              <mxPoint x="640" y="208" />
              <mxPoint x="668" y="208" />
            </Array>
          </mxGeometry>
        </mxCell>
        <mxCell id="Wy6P19Ys7phJF_CWAO8N-171" style="edgeStyle=orthogonalEdgeStyle;rounded=0;orthogonalLoop=1;jettySize=auto;html=1;exitX=0.5;exitY=0;exitDx=0;exitDy=0;entryX=0;entryY=0.5;entryDx=0;entryDy=0;" edge="1" parent="1" source="Wy6P19Ys7phJF_CWAO8N-7" target="Wy6P19Ys7phJF_CWAO8N-35">
          <mxGeometry relative="1" as="geometry">
            <Array as="points">
              <mxPoint x="640" y="208" />
              <mxPoint x="718" y="208" />
            </Array>
          </mxGeometry>
        </mxCell>
        <mxCell id="Wy6P19Ys7phJF_CWAO8N-175" style="edgeStyle=orthogonalEdgeStyle;rounded=0;orthogonalLoop=1;jettySize=auto;html=1;exitX=0.5;exitY=0;exitDx=0;exitDy=0;entryX=0.5;entryY=1;entryDx=0;entryDy=0;" edge="1" parent="1" source="Wy6P19Ys7phJF_CWAO8N-172" target="Wy6P19Ys7phJF_CWAO8N-206">
          <mxGeometry relative="1" as="geometry" />
        </mxCell>
        <mxCell id="Wy6P19Ys7phJF_CWAO8N-172" value="" style="shape=orEllipse;perimeter=ellipsePerimeter;whiteSpace=wrap;html=1;backgroundOutline=1;" vertex="1" parent="1">
          <mxGeometry x="400" y="140" width="20" height="20" as="geometry" />
        </mxCell>
        <mxCell id="Wy6P19Ys7phJF_CWAO8N-199" style="edgeStyle=orthogonalEdgeStyle;rounded=0;orthogonalLoop=1;jettySize=auto;html=1;exitX=0.5;exitY=0;exitDx=0;exitDy=0;entryX=0.5;entryY=1;entryDx=0;entryDy=0;" edge="1" parent="1" source="Wy6P19Ys7phJF_CWAO8N-188" target="Wy6P19Ys7phJF_CWAO8N-39">
          <mxGeometry relative="1" as="geometry">
            <Array as="points">
              <mxPoint x="530" y="700" />
              <mxPoint x="420" y="700" />
            </Array>
          </mxGeometry>
        </mxCell>
        <mxCell id="Wy6P19Ys7phJF_CWAO8N-200" style="edgeStyle=orthogonalEdgeStyle;rounded=0;orthogonalLoop=1;jettySize=auto;html=1;exitX=0.5;exitY=0;exitDx=0;exitDy=0;entryX=0.5;entryY=1;entryDx=0;entryDy=0;" edge="1" parent="1" source="Wy6P19Ys7phJF_CWAO8N-188" target="Wy6P19Ys7phJF_CWAO8N-40">
          <mxGeometry relative="1" as="geometry">
            <Array as="points">
              <mxPoint x="530" y="700" />
              <mxPoint x="640" y="700" />
            </Array>
          </mxGeometry>
        </mxCell>
        <mxCell id="Wy6P19Ys7phJF_CWAO8N-188" value="" style="rounded=1;whiteSpace=wrap;html=1;" vertex="1" parent="1">
          <mxGeometry x="442.5" y="712" width="175" height="72" as="geometry" />
        </mxCell>
        <mxCell id="Wy6P19Ys7phJF_CWAO8N-201" style="edgeStyle=orthogonalEdgeStyle;rounded=0;orthogonalLoop=1;jettySize=auto;html=1;exitX=1;exitY=0.5;exitDx=0;exitDy=0;entryX=0;entryY=0.5;entryDx=0;entryDy=0;" edge="1" parent="1" source="Wy6P19Ys7phJF_CWAO8N-191" target="Wy6P19Ys7phJF_CWAO8N-196">
          <mxGeometry relative="1" as="geometry">
            <Array as="points">
              <mxPoint x="290" y="578" />
              <mxPoint x="290" y="748" />
              <mxPoint x="465" y="748" />
            </Array>
          </mxGeometry>
        </mxCell>
        <mxCell id="Wy6P19Ys7phJF_CWAO8N-202" style="edgeStyle=orthogonalEdgeStyle;rounded=0;orthogonalLoop=1;jettySize=auto;html=1;exitX=0.5;exitY=0;exitDx=0;exitDy=0;entryX=0.5;entryY=1;entryDx=0;entryDy=0;" edge="1" parent="1" source="Wy6P19Ys7phJF_CWAO8N-191" target="Wy6P19Ys7phJF_CWAO8N-198">
          <mxGeometry relative="1" as="geometry" />
        </mxCell>
        <mxCell id="Wy6P19Ys7phJF_CWAO8N-191" value="Transformation" style="rounded=0;whiteSpace=wrap;html=1;" vertex="1" parent="1">
          <mxGeometry x="147.5" y="563" width="105" height="30" as="geometry" />
        </mxCell>
        <mxCell id="Wy6P19Ys7phJF_CWAO8N-193" value="" style="rounded=0;whiteSpace=wrap;html=1;fillColor=#eeeeee;strokeColor=#36393d;" vertex="1" parent="1">
          <mxGeometry x="525" y="732" width="10" height="30" as="geometry" />
        </mxCell>
        <mxCell id="Wy6P19Ys7phJF_CWAO8N-194" value="" style="rounded=0;whiteSpace=wrap;html=1;fillColor=#eeeeee;strokeColor=#36393d;" vertex="1" parent="1">
          <mxGeometry x="545" y="732" width="10" height="30" as="geometry" />
        </mxCell>
        <mxCell id="Wy6P19Ys7phJF_CWAO8N-195" value="" style="rounded=0;whiteSpace=wrap;html=1;fillColor=#eeeeee;strokeColor=#36393d;" vertex="1" parent="1">
          <mxGeometry x="585" y="732" width="10" height="30" as="geometry" />
        </mxCell>
        <mxCell id="Wy6P19Ys7phJF_CWAO8N-196" value="x&#39;l" style="ellipse;whiteSpace=wrap;html=1;aspect=fixed;fillColor=#eeeeee;strokeColor=#36393d;" vertex="1" parent="1">
          <mxGeometry x="467.5" y="733" width="30" height="30" as="geometry" />
        </mxCell>
        <mxCell id="Wy6P19Ys7phJF_CWAO8N-198" value="x&#39;l" style="ellipse;whiteSpace=wrap;html=1;aspect=fixed;" vertex="1" parent="1">
          <mxGeometry x="185" y="490" width="30" height="30" as="geometry" />
        </mxCell>
        <mxCell id="Wy6P19Ys7phJF_CWAO8N-205" style="edgeStyle=orthogonalEdgeStyle;rounded=0;orthogonalLoop=1;jettySize=auto;html=1;exitX=0;exitY=0.5;exitDx=0;exitDy=0;entryX=0;entryY=0.5;entryDx=0;entryDy=0;" edge="1" parent="1" source="Wy6P19Ys7phJF_CWAO8N-203" target="Wy6P19Ys7phJF_CWAO8N-6">
          <mxGeometry relative="1" as="geometry">
            <Array as="points">
              <mxPoint x="70" y="755" />
              <mxPoint x="70" y="53" />
            </Array>
          </mxGeometry>
        </mxCell>
        <mxCell id="Wy6P19Ys7phJF_CWAO8N-203" value="" style="rounded=1;whiteSpace=wrap;html=1;" vertex="1" parent="1">
          <mxGeometry x="103" y="719" width="175" height="72" as="geometry" />
        </mxCell>
        <mxCell id="Wy6P19Ys7phJF_CWAO8N-177" value="" style="whiteSpace=wrap;html=1;aspect=fixed;fillColor=#eeeeee;strokeColor=#36393d;" vertex="1" parent="1">
          <mxGeometry x="175.5" y="740" width="30" height="30" as="geometry" />
        </mxCell>
        <mxCell id="Wy6P19Ys7phJF_CWAO8N-189" value="" style="whiteSpace=wrap;html=1;aspect=fixed;fillColor=#eeeeee;strokeColor=#36393d;" vertex="1" parent="1">
          <mxGeometry x="118" y="740" width="30" height="30" as="geometry" />
        </mxCell>
        <mxCell id="Wy6P19Ys7phJF_CWAO8N-190" value="xl" style="ellipse;whiteSpace=wrap;html=1;aspect=fixed;fillColor=#eeeeee;strokeColor=#36393d;" vertex="1" parent="1">
          <mxGeometry x="218" y="740" width="30" height="30" as="geometry" />
        </mxCell>
        <mxCell id="Wy6P19Ys7phJF_CWAO8N-192" style="edgeStyle=orthogonalEdgeStyle;rounded=0;orthogonalLoop=1;jettySize=auto;html=1;exitX=0.5;exitY=0;exitDx=0;exitDy=0;entryX=0.502;entryY=1.058;entryDx=0;entryDy=0;entryPerimeter=0;" edge="1" parent="1" source="Wy6P19Ys7phJF_CWAO8N-190" target="Wy6P19Ys7phJF_CWAO8N-191">
          <mxGeometry relative="1" as="geometry" />
        </mxCell>
        <mxCell id="Wy6P19Ys7phJF_CWAO8N-207" style="edgeStyle=orthogonalEdgeStyle;rounded=0;orthogonalLoop=1;jettySize=auto;html=1;exitX=0.5;exitY=0;exitDx=0;exitDy=0;entryX=0.5;entryY=1;entryDx=0;entryDy=0;" edge="1" parent="1" source="Wy6P19Ys7phJF_CWAO8N-206" target="Wy6P19Ys7phJF_CWAO8N-212">
          <mxGeometry relative="1" as="geometry">
            <Array as="points">
              <mxPoint x="410" y="80" />
              <mxPoint x="460" y="80" />
            </Array>
          </mxGeometry>
        </mxCell>
        <mxCell id="Wy6P19Ys7phJF_CWAO8N-206" value="Transformation" style="rounded=0;whiteSpace=wrap;html=1;" vertex="1" parent="1">
          <mxGeometry x="357.5" y="95" width="105" height="30" as="geometry" />
        </mxCell>
        <mxCell id="Wy6P19Ys7phJF_CWAO8N-208" value="Large Patch" style="text;html=1;strokeColor=none;fillColor=none;align=center;verticalAlign=middle;whiteSpace=wrap;rounded=0;" vertex="1" parent="1">
          <mxGeometry x="155" y="791" width="60" height="30" as="geometry" />
        </mxCell>
        <mxCell id="Wy6P19Ys7phJF_CWAO8N-209" value="Small &lt;br&gt;Patch" style="text;html=1;strokeColor=none;fillColor=none;align=center;verticalAlign=middle;whiteSpace=wrap;rounded=0;" vertex="1" parent="1">
          <mxGeometry x="500" y="791" width="60" height="30" as="geometry" />
        </mxCell>
        <mxCell id="Wy6P19Ys7phJF_CWAO8N-210" value="" style="whiteSpace=wrap;html=1;aspect=fixed;" vertex="1" parent="1">
          <mxGeometry x="402.5" y="38" width="30" height="30" as="geometry" />
        </mxCell>
        <mxCell id="Wy6P19Ys7phJF_CWAO8N-211" value="" style="whiteSpace=wrap;html=1;aspect=fixed;" vertex="1" parent="1">
          <mxGeometry x="345" y="38" width="30" height="30" as="geometry" />
        </mxCell>
        <mxCell id="Wy6P19Ys7phJF_CWAO8N-212" value="y" style="ellipse;whiteSpace=wrap;html=1;aspect=fixed;" vertex="1" parent="1">
          <mxGeometry x="445" y="38" width="30" height="30" as="geometry" />
        </mxCell>
        <mxCell id="Wy6P19Ys7phJF_CWAO8N-213" value="....." style="text;html=1;strokeColor=none;fillColor=none;align=center;verticalAlign=middle;whiteSpace=wrap;rounded=0;" vertex="1" parent="1">
          <mxGeometry x="130" y="740" width="60" height="30" as="geometry" />
        </mxCell>
        <mxCell id="Wy6P19Ys7phJF_CWAO8N-214" value="....." style="text;html=1;strokeColor=none;fillColor=none;align=center;verticalAlign=middle;whiteSpace=wrap;rounded=0;" vertex="1" parent="1">
          <mxGeometry x="477.5" y="733" width="60" height="30" as="geometry" />
        </mxCell>
        <mxCell id="Wy6P19Ys7phJF_CWAO8N-215" value="....." style="text;html=1;strokeColor=none;fillColor=none;align=center;verticalAlign=middle;whiteSpace=wrap;rounded=0;" vertex="1" parent="1">
          <mxGeometry x="357.5" y="38" width="60" height="30" as="geometry" />
        </mxCell>
      </root>
    </mxGraphModel>
  </diagram>
</mxfile>
